<svg width="960" height="640" viewBox="0 0 960 640" fill="none" xmlns="http://www.w3.org/2000/svg">
  <defs>
    <linearGradient id="liquidA" x1="146" y1="72" x2="800" y2="578" gradientUnits="userSpaceOnUse">
      <stop stop-color="#FFFFFF"/>
      <stop offset="0.22" stop-color="#67E8F9"/>
      <stop offset="0.54" stop-color="#00A6A6"/>
      <stop offset="1" stop-color="#8B7CF6"/>
    </linearGradient>
    <linearGradient id="liquidB" x1="587" y1="96" x2="808" y2="316" gradientUnits="userSpaceOnUse">
      <stop stop-color="#B8F56F"/>
      <stop offset="1" stop-color="#67E8F9"/>
    </linearGradient>
    <filter id="blur" x="-20%" y="-20%" width="140%" height="140%" color-interpolation-filters="sRGB">
      <feGaussianBlur stdDeviation="34"/>
    </filter>
    <filter id="shadow" x="0" y="0" width="960" height="640" filterUnits="userSpaceOnUse" color-interpolation-filters="sRGB">
      <feDropShadow dx="0" dy="28" stdDeviation="30" flood-color="#006F8A" flood-opacity="0.2"/>
    </filter>
  </defs>
  <rect width="960" height="640" rx="36" fill="#F7FBFF"/>
  <g filter="url(#blur)" opacity="0.54">
    <path d="M125 263C91 139 216 52 341 91C463 129 461 265 572 255C689 244 766 161 845 260C931 368 833 546 670 526C546 511 523 418 411 452C270 495 159 385 125 263Z" fill="url(#liquidA)"/>
  </g>
  <path d="M119 328C76 185 211 72 358 105C494 136 505 280 614 260C747 236 856 304 840 423C824 545 679 592 558 538C443 487 371 574 246 514C174 480 139 396 119 328Z" fill="url(#liquidA)"/>
  <path d="M620 166C681 107 794 125 819 210C847 305 746 371 663 328C599 294 571 213 620 166Z" fill="url(#liquidB)" opacity="0.92"/>
  <path d="M200 181C190 126 250 91 300 116C345 138 341 201 291 218C251 231 208 222 200 181Z" fill="white" fill-opacity="0.62"/>
  <g filter="url(#shadow)">
    <rect x="210" y="166" width="540" height="326" rx="34" fill="white" fill-opacity="0.62" stroke="white" stroke-opacity="0.74" stroke-width="2"/>
    <rect x="244" y="204" width="164" height="20" rx="10" fill="#061826"/>
    <rect x="244" y="242" width="246" height="12" rx="6" fill="#557081" fill-opacity="0.36"/>
    <rect x="244" y="268" width="194" height="12" rx="6" fill="#557081" fill-opacity="0.24"/>
    <rect x="244" y="324" width="132" height="104" rx="24" fill="#061826" fill-opacity="0.9"/>
    <rect x="400" y="324" width="132" height="104" rx="24" fill="#FFFFFF" fill-opacity="0.72"/>
    <rect x="556" y="324" width="132" height="104" rx="24" fill="#FFFFFF" fill-opacity="0.72"/>
    <path d="M278 391C300 346 319 386 344 345" stroke="#67E8F9" stroke-width="8" stroke-linecap="round"/>
    <path d="M430 389C452 352 474 380 503 343" stroke="#00A6A6" stroke-width="8" stroke-linecap="round"/>
    <path d="M586 389C607 356 632 381 661 341" stroke="#8B7CF6" stroke-width="8" stroke-linecap="round"/>
    <rect x="556" y="204" width="132" height="48" rx="18" fill="#061826"/>
    <circle cx="594" cy="228" r="10" fill="#B8F56F"/>
    <rect x="616" y="220" width="44" height="16" rx="8" fill="white" fill-opacity="0.88"/>
  </g>
</svg>
