<svg width="960" height="640" viewBox="0 0 960 640" fill="none" xmlns="http://www.w3.org/2000/svg">
  <defs>
    <linearGradient id="blueGrad" x1="146" y1="72" x2="800" y2="578" gradientUnits="userSpaceOnUse">
      <stop stop-color="#3349D4"/>
      <stop offset="1" stop-color="#021FBB"/>
    </linearGradient>
    <filter id="shadow" x="0" y="0" width="960" height="640" filterUnits="userSpaceOnUse" color-interpolation-filters="sRGB">
      <feDropShadow dx="0" dy="20" stdDeviation="24" flood-color="#021FBB" flood-opacity="0.12"/>
    </filter>
  </defs>
  <rect width="960" height="640" rx="36" fill="#F0F2F7"/>
  <ellipse cx="200" cy="180" rx="160" ry="80" fill="white" opacity="0.7"/>
  <ellipse cx="720" cy="120" rx="200" ry="90" fill="white" opacity="0.6"/>
  <ellipse cx="680" cy="480" rx="180" ry="70" fill="white" opacity="0.55"/>
  <g filter="url(#shadow)">
    <rect x="180" y="120" width="600" height="400" rx="24" fill="white" stroke="rgba(2,31,187,0.1)" stroke-width="1"/>
    <rect x="180" y="120" width="600" height="52" rx="24" fill="#000000"/>
    <rect x="180" y="152" width="600" height="20" fill="#000000"/>
    <circle cx="214" cy="146" r="7" fill="#FF5F57"/>
    <circle cx="236" cy="146" r="7" fill="#FFBD2E"/>
    <circle cx="258" cy="146" r="7" fill="#28CA41"/>
    <rect x="420" y="136" width="120" height="18" rx="9" fill="white" fill-opacity="0.15"/>
    <circle cx="720" cy="146" r="14" fill="url(#blueGrad)"/>
    <rect x="214" y="196" width="180" height="12" rx="6" fill="#4A5568" fill-opacity="0.25"/>
    <rect x="214" y="218" width="240" height="10" rx="5" fill="#4A5568" fill-opacity="0.15"/>
    <rect x="520" y="196" width="220" height="48" rx="16" fill="#F0F2F7"/>
    <rect x="536" y="210" width="188" height="9" rx="4" fill="#4A5568" fill-opacity="0.3"/>
    <rect x="536" y="226" width="130" height="7" rx="3" fill="#4A5568" fill-opacity="0.15"/>
    <rect x="214" y="262" width="280" height="48" rx="16" fill="url(#blueGrad)"/>
    <rect x="230" y="276" width="248" height="9" rx="4" fill="white" fill-opacity="0.9"/>
    <rect x="230" y="292" width="180" height="7" rx="3" fill="white" fill-opacity="0.55"/>
    <rect x="520" y="262" width="200" height="48" rx="16" fill="#F0F2F7"/>
    <rect x="536" y="278" width="168" height="9" rx="4" fill="#4A5568" fill-opacity="0.3"/>
    <rect x="214" y="328" width="320" height="48" rx="16" fill="url(#blueGrad)"/>
    <rect x="230" y="342" width="288" height="9" rx="4" fill="white" fill-opacity="0.9"/>
    <rect x="230" y="358" width="200" height="7" rx="3" fill="white" fill-opacity="0.55"/>
    <rect x="214" y="404" width="506" height="44" rx="22" fill="white" stroke="rgba(2,31,187,0.12)" stroke-width="1"/>
    <rect x="234" y="418" width="200" height="10" rx="5" fill="#4A5568" fill-opacity="0.2"/>
    <rect x="620" y="410" width="84" height="32" rx="16" fill="#021FBB"/>
    <path d="M654 426L662 426" stroke="white" stroke-width="2" stroke-linecap="round"/>
    <path d="M658 422L662 426L658 430" stroke="white" stroke-width="2" stroke-linecap="round" stroke-linejoin="round"/>
    <rect x="720" y="440" width="52" height="52" rx="26" fill="url(#blueGrad)"/>
    <circle cx="738" cy="458" r="3" fill="white"/>
    <circle cx="746" cy="458" r="3" fill="white"/>
    <path d="M736 466C738 468 742 468 744 466" stroke="white" stroke-width="1.5" stroke-linecap="round"/>
  </g>
</svg>
