<svg width="1200" height="630" viewBox="0 0 1200 630" fill="none" xmlns="http://www.w3.org/2000/svg">
  <defs>
    <linearGradient id="blob" x1="684" y1="83" x2="1108" y2="532" gradientUnits="userSpaceOnUse">
      <stop stop-color="#FFFFFF"/>
      <stop offset="0.22" stop-color="#67E8F9"/>
      <stop offset="0.58" stop-color="#00A6A6"/>
      <stop offset="1" stop-color="#8B7CF6"/>
    </linearGradient>
    <filter id="soft" x="-20%" y="-20%" width="140%" height="140%" color-interpolation-filters="sRGB">
      <feGaussianBlur stdDeviation="26"/>
    </filter>
  </defs>
  <rect width="1200" height="630" fill="#F7FBFF"/>
  <path d="M744 170C811 76 970 85 1040 181C1121 292 1046 497 894 507C792 514 747 440 679 390C592 326 676 265 744 170Z" fill="url(#blob)" filter="url(#soft)" opacity="0.64"/>
  <path d="M736 178C803 84 962 93 1032 189C1113 300 1038 505 886 515C784 522 739 448 671 398C584 334 668 273 736 178Z" fill="url(#blob)"/>
  <rect x="84" y="78" width="1032" height="474" rx="38" fill="white" fill-opacity="0.7" stroke="white" stroke-width="2"/>
  <path d="M126 171C117 137 148 104 183 111C217 118 234 158 214 187C193 217 137 211 126 171Z" fill="url(#blob)"/>
  <circle cx="154" cy="136" r="13" fill="white" fill-opacity="0.76"/>
  <text x="126" y="286" fill="#061826" font-family="Inter, Arial, sans-serif" font-size="68" font-weight="800">Liquid UI assets</text>
  <text x="126" y="366" fill="#061826" font-family="Inter, Arial, sans-serif" font-size="68" font-weight="800">for alive landing pages</text>
  <text x="130" y="438" fill="#557081" font-family="Inter, Arial, sans-serif" font-size="28" font-weight="500">Glass panels, fluid blobs, glossy icons, and editable vectors.</text>
  <rect x="782" y="260" width="214" height="132" rx="34" fill="white" fill-opacity="0.64" stroke="white" stroke-width="2"/>
  <path d="M822 344C854 286 879 343 920 291C944 260 963 279 976 257" stroke="#061826" stroke-width="10" stroke-linecap="round"/>
  <circle cx="840" cy="292" r="18" fill="#B8F56F"/>
</svg>
