<svg width="210" height="58" viewBox="0 0 210 58" fill="none" xmlns="http://www.w3.org/2000/svg" role="img" aria-labelledby="title desc">
  <title id="title">FlowBot logo</title>
  <desc id="desc">FlowBot wordmark with blue chat mark.</desc>
  <defs>
    <linearGradient id="drop" x1="10" y1="8" x2="52" y2="52" gradientUnits="userSpaceOnUse">
      <stop stop-color="#3349D4"/>
      <stop offset="1" stop-color="#021FBB"/>
    </linearGradient>
  </defs>
  <rect x="8" y="10" width="48" height="40" rx="14" fill="url(#drop)"/>
  <circle cx="24" cy="26" r="3" fill="white"/>
  <circle cx="34" cy="26" r="3" fill="white"/>
  <path d="M22 34C25 37 29 37 32 34" stroke="white" stroke-width="2" stroke-linecap="round"/>
  <path d="M38 38L44 44V38H38Z" fill="#021FBB"/>
  <path d="M75.2 39V17.6H80.2V34.7H90.7V39H75.2ZM94.5 21.5C93.1 21.5 92.1 20.5 92.1 19.2C92.1 17.9 93.1 16.9 94.5 16.9C95.9 16.9 96.9 17.9 96.9 19.2C96.9 20.5 95.9 21.5 94.5 21.5ZM92.2 39V23.8H96.9V39H92.2ZM107.7 45.2C103.5 45.2 100.8 43.4 100.3 40.2H104.9C105.3 41.2 106.2 41.7 107.8 41.7C109.8 41.7 111 40.6 111 38.8V37C110.1 38.2 108.6 39 106.7 39C102.7 39 100 35.8 100 31.4C100 26.9 102.7 23.4 106.8 23.4C108.8 23.4 110.2 24.2 111.1 25.6V23.8H115.7V38.4C115.7 42.6 112.7 45.2 107.7 45.2ZM107.9 35.1C109.8 35.1 111.1 33.6 111.1 31.3C111.1 29.1 109.8 27.4 107.9 27.4C106 27.4 104.7 29.1 104.7 31.3C104.7 33.6 106 35.1 107.9 35.1ZM126.6 39.4C122.8 39.4 120.6 37 120.6 32.9V23.8H125.3V32.1C125.3 34.2 126.3 35.3 128 35.3C129.8 35.3 130.9 34 130.9 31.8V23.8H135.6V39H131.1V37.1C130.2 38.5 128.7 39.4 126.6 39.4ZM142.6 21.5C141.2 21.5 140.2 20.5 140.2 19.2C140.2 17.9 141.2 16.9 142.6 16.9C144 16.9 145 17.9 145 19.2C145 20.5 144 21.5 142.6 21.5ZM140.3 39V23.8H145V39H140.3ZM155.6 39.4C151.1 39.4 148.2 36 148.2 31.4C148.2 26.8 151.1 23.4 155.6 23.4C157.5 23.4 159.1 24.2 160 25.4V17H164.7V39H160.1V37C159.2 38.5 157.5 39.4 155.6 39.4ZM156.6 35.4C158.6 35.4 160 33.8 160 31.4C160 29 158.6 27.4 156.6 27.4C154.6 27.4 153.1 29 153.1 31.4C153.1 33.8 154.6 35.4 156.6 35.4ZM170.1 39V17.6H185.5V21.8H175.1V26.5H184.3V30.6H175.1V39H170.1ZM189.3 39V17H194V39H189.3Z" fill="#FFFFFF"/>
</svg>
